# This file uses centimeters as units for non-parametric coordinates.

mtllib sphere.mtl
g default
v 0.270598 -0.923880 -0.270598
v 0.000000 -0.923880 -0.382683
v -0.270598 -0.923880 -0.270598
v -0.382683 -0.923880 0.000000
v -0.270598 -0.923880 0.270598
v 0.000000 -0.923880 0.382683
v 0.270598 -0.923880 0.270598
v 0.382683 -0.923880 0.000000
v 0.500000 -0.707107 -0.500000
v 0.000000 -0.707107 -0.707107
v -0.500000 -0.707107 -0.500000
v -0.707107 -0.707107 0.000000
v -0.500000 -0.707107 0.500000
v 0.000000 -0.707107 0.707107
v 0.500000 -0.707107 0.500000
v 0.707107 -0.707107 0.000000
v 0.653281 -0.382683 -0.653281
v 0.000000 -0.382683 -0.923879
v -0.653281 -0.382683 -0.653281
v -0.923879 -0.382683 0.000000
v -0.653281 -0.382683 0.653281
v 0.000000 -0.382683 0.923879
v 0.653281 -0.382683 0.653281
v 0.923880 -0.382683 0.000000
v 0.707107 0.000000 -0.707107
v 0.000000 0.000000 -1.000000
v -0.707107 0.000000 -0.707107
v -1.000000 0.000000 0.000000
v -0.707107 0.000000 0.707107
v 0.000000 0.000000 1.000000
v 0.707107 0.000000 0.707107
v 1.000000 0.000000 0.000000
v 0.653281 0.382683 -0.653281
v 0.000000 0.382683 -0.923879
v -0.653281 0.382683 -0.653281
v -0.923879 0.382683 0.000000
v -0.653281 0.382683 0.653281
v 0.000000 0.382683 0.923879
v 0.653281 0.382683 0.653281
v 0.923880 0.382683 0.000000
v 0.500000 0.707107 -0.500000
v 0.000000 0.707107 -0.707107
v -0.500000 0.707107 -0.500000
v -0.707107 0.707107 0.000000
v -0.500000 0.707107 0.500000
v 0.000000 0.707107 0.707107
v 0.500000 0.707107 0.500000
v 0.707107 0.707107 0.000000
v 0.270598 0.923880 -0.270598
v 0.000000 0.923880 -0.382683
v -0.270598 0.923880 -0.270598
v -0.382683 0.923880 0.000000
v -0.270598 0.923880 0.270598
v 0.000000 0.923880 0.382683
v 0.270598 0.923880 0.270598
v 0.382683 0.923880 0.000000
v 0.000000 -1.000000 0.000000
v 0.000000 1.000000 0.000000
vt 0.000000 0.125000
vt 0.125000 0.125000
vt 0.000000 0.250000
vt 0.125000 0.250000
vt 0.250000 0.125000
vt 0.250000 0.250000
vt 0.375000 0.125000
vt 0.375000 0.250000
vt 0.500000 0.125000
vt 0.500000 0.250000
vt 0.625000 0.125000
vt 0.625000 0.250000
vt 0.750000 0.125000
vt 0.750000 0.250000
vt 0.875000 0.125000
vt 0.875000 0.250000
vt 1.000000 0.125000
vt 1.000000 0.250000
vt 0.000000 0.375000
vt 0.125000 0.375000
vt 0.250000 0.375000
vt 0.375000 0.375000
vt 0.500000 0.375000
vt 0.625000 0.375000
vt 0.750000 0.375000
vt 0.875000 0.375000
vt 1.000000 0.375000
vt 0.000000 0.500000
vt 0.125000 0.500000
vt 0.250000 0.500000
vt 0.375000 0.500000
vt 0.500000 0.500000
vt 0.625000 0.500000
vt 0.750000 0.500000
vt 0.875000 0.500000
vt 1.000000 0.500000
vt 0.000000 0.625000
vt 0.125000 0.625000
vt 0.250000 0.625000
vt 0.375000 0.625000
vt 0.500000 0.625000
vt 0.625000 0.625000
vt 0.750000 0.625000
vt 0.875000 0.625000
vt 1.000000 0.625000
vt 0.000000 0.750000
vt 0.125000 0.750000
vt 0.250000 0.750000
vt 0.375000 0.750000
vt 0.500000 0.750000
vt 0.625000 0.750000
vt 0.750000 0.750000
vt 0.875000 0.750000
vt 1.000000 0.750000
vt 0.000000 0.875000
vt 0.125000 0.875000
vt 0.250000 0.875000
vt 0.375000 0.875000
vt 0.500000 0.875000
vt 0.625000 0.875000
vt 0.750000 0.875000
vt 0.875000 0.875000
vt 1.000000 0.875000
vt 0.062500 0.000000
vt 0.187500 0.000000
vt 0.312500 0.000000
vt 0.437500 0.000000
vt 0.562500 0.000000
vt 0.687500 0.000000
vt 0.812500 0.000000
vt 0.937500 0.000000
vt 0.062500 1.000000
vt 0.187500 1.000000
vt 0.312500 1.000000
vt 0.437500 1.000000
vt 0.562500 1.000000
vt 0.687500 1.000000
vt 0.812500 1.000000
vt 0.937500 1.000000
vn 0.224263 -0.810291 -0.541420
vn 0.224263 -0.810291 -0.541420
vn 0.224263 -0.810291 -0.541420
vn 0.224263 -0.810291 -0.541419
vn 0.224263 -0.810291 -0.541419
vn 0.224263 -0.810291 -0.541419
vn -0.224262 -0.810291 -0.541419
vn -0.224262 -0.810291 -0.541419
vn -0.224262 -0.810291 -0.541419
vn -0.224263 -0.810291 -0.541419
vn -0.224263 -0.810291 -0.541419
vn -0.224263 -0.810291 -0.541419
vn -0.541420 -0.810291 -0.224263
vn -0.541420 -0.810291 -0.224263
vn -0.541420 -0.810291 -0.224263
vn -0.541419 -0.810291 -0.224263
vn -0.541419 -0.810291 -0.224263
vn -0.541419 -0.810291 -0.224263
vn -0.541419 -0.810291 0.224262
vn -0.541419 -0.810291 0.224262
vn -0.541419 -0.810291 0.224262
vn -0.541419 -0.810291 0.224263
vn -0.541419 -0.810291 0.224263
vn -0.541419 -0.810291 0.224263
vn -0.224263 -0.810291 0.541420
vn -0.224263 -0.810291 0.541420
vn -0.224263 -0.810291 0.541420
vn -0.224263 -0.810291 0.541419
vn -0.224263 -0.810291 0.541419
vn -0.224263 -0.810291 0.541419
vn 0.224262 -0.810291 0.541419
vn 0.224262 -0.810291 0.541419
vn 0.224262 -0.810291 0.541419
vn 0.224263 -0.810291 0.541419
vn 0.224263 -0.810291 0.541419
vn 0.224263 -0.810291 0.541419
vn 0.541420 -0.810291 0.224263
vn 0.541420 -0.810291 0.224263
vn 0.541420 -0.810291 0.224263
vn 0.541419 -0.810291 0.224263
vn 0.541419 -0.810291 0.224263
vn 0.541419 -0.810291 0.224263
vn 0.541419 -0.810291 -0.224262
vn 0.541419 -0.810291 -0.224262
vn 0.541419 -0.810291 -0.224262
vn 0.541419 -0.810291 -0.224263
vn 0.541419 -0.810291 -0.224263
vn 0.541419 -0.810291 -0.224263
vn 0.325635 -0.525287 -0.786152
vn 0.325635 -0.525287 -0.786152
vn 0.325635 -0.525287 -0.786152
vn 0.325635 -0.525287 -0.786152
vn 0.325635 -0.525287 -0.786152
vn 0.325635 -0.525287 -0.786152
vn -0.325635 -0.525287 -0.786152
vn -0.325635 -0.525287 -0.786152
vn -0.325635 -0.525287 -0.786152
vn -0.325635 -0.525287 -0.786152
vn -0.325635 -0.525287 -0.786152
vn -0.325635 -0.525287 -0.786152
vn -0.786152 -0.525287 -0.325635
vn -0.786152 -0.525287 -0.325635
vn -0.786152 -0.525287 -0.325635
vn -0.786152 -0.525287 -0.325635
vn -0.786152 -0.525287 -0.325635
vn -0.786152 -0.525287 -0.325635
vn -0.786152 -0.525287 0.325635
vn -0.786152 -0.525287 0.325635
vn -0.786152 -0.525287 0.325635
vn -0.786152 -0.525287 0.325635
vn -0.786152 -0.525287 0.325635
vn -0.786152 -0.525287 0.325635
vn -0.325635 -0.525287 0.786152
vn -0.325635 -0.525287 0.786152
vn -0.325635 -0.525287 0.786152
vn -0.325635 -0.525287 0.786152
vn -0.325635 -0.525287 0.786152
vn -0.325635 -0.525287 0.786152
vn 0.325635 -0.525287 0.786152
vn 0.325635 -0.525287 0.786152
vn 0.325635 -0.525287 0.786152
vn 0.325635 -0.525287 0.786152
vn 0.325635 -0.525287 0.786152
vn 0.325635 -0.525287 0.786152
vn 0.786152 -0.525287 0.325635
vn 0.786152 -0.525287 0.325635
vn 0.786152 -0.525287 0.325635
vn 0.786151 -0.525289 0.325636
vn 0.786151 -0.525289 0.325636
vn 0.786151 -0.525289 0.325636
vn 0.786151 -0.525289 -0.325635
vn 0.786151 -0.525289 -0.325635
vn 0.786151 -0.525289 -0.325635
vn 0.786152 -0.525287 -0.325636
vn 0.786152 -0.525287 -0.325636
vn 0.786152 -0.525287 -0.325636
vn 0.376381 -0.180747 -0.908663
vn 0.376381 -0.180747 -0.908663
vn 0.376381 -0.180747 -0.908663
vn 0.376380 -0.180746 -0.908663
vn 0.376380 -0.180746 -0.908663
vn 0.376380 -0.180746 -0.908663
vn -0.376381 -0.180746 -0.908663
vn -0.376381 -0.180746 -0.908663
vn -0.376381 -0.180746 -0.908663
vn -0.376380 -0.180747 -0.908663
vn -0.376380 -0.180747 -0.908663
vn -0.376380 -0.180747 -0.908663
vn -0.908663 -0.180747 -0.376381
vn -0.908663 -0.180747 -0.376381
vn -0.908663 -0.180747 -0.376381
vn -0.908663 -0.180746 -0.376380
vn -0.908663 -0.180746 -0.376380
vn -0.908663 -0.180746 -0.376380
vn -0.908663 -0.180746 0.376381
vn -0.908663 -0.180746 0.376381
vn -0.908663 -0.180746 0.376381
vn -0.908663 -0.180747 0.376380
vn -0.908663 -0.180747 0.376380
vn -0.908663 -0.180747 0.376380
vn -0.376381 -0.180747 0.908663
vn -0.376381 -0.180747 0.908663
vn -0.376381 -0.180747 0.908663
vn -0.376380 -0.180746 0.908663
vn -0.376380 -0.180746 0.908663
vn -0.376380 -0.180746 0.908663
vn 0.376381 -0.180746 0.908663
vn 0.376381 -0.180746 0.908663
vn 0.376381 -0.180746 0.908663
vn 0.376380 -0.180747 0.908663
vn 0.376380 -0.180747 0.908663
vn 0.376380 -0.180747 0.908663
vn 0.908662 -0.180747 0.376382
vn 0.908662 -0.180747 0.376382
vn 0.908662 -0.180747 0.376382
vn 0.908664 -0.180744 0.376380
vn 0.908664 -0.180744 0.376380
vn 0.908664 -0.180744 0.376380
vn 0.908663 -0.180744 -0.376382
vn 0.908663 -0.180744 -0.376382
vn 0.908663 -0.180744 -0.376382
vn 0.908663 -0.180747 -0.376380
vn 0.908663 -0.180747 -0.376380
vn 0.908663 -0.180747 -0.376380
vn 0.376380 0.180747 -0.908663
vn 0.376380 0.180747 -0.908663
vn 0.376380 0.180747 -0.908663
vn 0.376381 0.180746 -0.908663
vn 0.376381 0.180746 -0.908663
vn 0.376381 0.180746 -0.908663
vn -0.376380 0.180746 -0.908663
vn -0.376380 0.180746 -0.908663
vn -0.376380 0.180746 -0.908663
vn -0.376381 0.180747 -0.908663
vn -0.376381 0.180747 -0.908663
vn -0.376381 0.180747 -0.908663
vn -0.908663 0.180747 -0.376380
vn -0.908663 0.180747 -0.376380
vn -0.908663 0.180747 -0.376380
vn -0.908663 0.180746 -0.376381
vn -0.908663 0.180746 -0.376381
vn -0.908663 0.180746 -0.376381
vn -0.908663 0.180746 0.376380
vn -0.908663 0.180746 0.376380
vn -0.908663 0.180746 0.376380
vn -0.908663 0.180747 0.376381
vn -0.908663 0.180747 0.376381
vn -0.908663 0.180747 0.376381
vn -0.376380 0.180747 0.908663
vn -0.376380 0.180747 0.908663
vn -0.376380 0.180747 0.908663
vn -0.376381 0.180746 0.908663
vn -0.376381 0.180746 0.908663
vn -0.376381 0.180746 0.908663
vn 0.376380 0.180746 0.908663
vn 0.376380 0.180746 0.908663
vn 0.376380 0.180746 0.908663
vn 0.376381 0.180747 0.908663
vn 0.376381 0.180747 0.908663
vn 0.376381 0.180747 0.908663
vn 0.908663 0.180747 0.376380
vn 0.908663 0.180747 0.376380
vn 0.908663 0.180747 0.376380
vn 0.908663 0.180744 0.376382
vn 0.908663 0.180744 0.376382
vn 0.908663 0.180744 0.376382
vn 0.908664 0.180744 -0.376380
vn 0.908664 0.180744 -0.376380
vn 0.908664 0.180744 -0.376380
vn 0.908662 0.180747 -0.376382
vn 0.908662 0.180747 -0.376382
vn 0.908662 0.180747 -0.376382
vn 0.325635 0.525287 -0.786152
vn 0.325635 0.525287 -0.786152
vn 0.325635 0.525287 -0.786152
vn 0.325635 0.525287 -0.786152
vn 0.325635 0.525287 -0.786152
vn 0.325635 0.525287 -0.786152
vn -0.325635 0.525287 -0.786152
vn -0.325635 0.525287 -0.786152
vn -0.325635 0.525287 -0.786152
vn -0.325635 0.525287 -0.786152
vn -0.325635 0.525287 -0.786152
vn -0.325635 0.525287 -0.786152
vn -0.786152 0.525287 -0.325635
vn -0.786152 0.525287 -0.325635
vn -0.786152 0.525287 -0.325635
vn -0.786152 0.525287 -0.325635
vn -0.786152 0.525287 -0.325635
vn -0.786152 0.525287 -0.325635
vn -0.786152 0.525287 0.325635
vn -0.786152 0.525287 0.325635
vn -0.786152 0.525287 0.325635
vn -0.786152 0.525287 0.325635
vn -0.786152 0.525287 0.325635
vn -0.786152 0.525287 0.325635
vn -0.325635 0.525287 0.786152
vn -0.325635 0.525287 0.786152
vn -0.325635 0.525287 0.786152
vn -0.325635 0.525287 0.786152
vn -0.325635 0.525287 0.786152
vn -0.325635 0.525287 0.786152
vn 0.325635 0.525287 0.786152
vn 0.325635 0.525287 0.786152
vn 0.325635 0.525287 0.786152
vn 0.325635 0.525287 0.786152
vn 0.325635 0.525287 0.786152
vn 0.325635 0.525287 0.786152
vn 0.786152 0.525288 0.325636
vn 0.786152 0.525287 0.325636
vn 0.786152 0.525287 0.325636
vn 0.786151 0.525289 0.325635
vn 0.786151 0.525289 0.325635
vn 0.786151 0.525289 0.325635
vn 0.786151 0.525289 -0.325636
vn 0.786151 0.525289 -0.325636
vn 0.786151 0.525289 -0.325636
vn 0.786152 0.525287 -0.325635
vn 0.786152 0.525287 -0.325635
vn 0.786152 0.525287 -0.325635
vn 0.224263 0.810291 -0.541419
vn 0.224263 0.810291 -0.541419
vn 0.224263 0.810291 -0.541419
vn 0.224262 0.810291 -0.541419
vn 0.224262 0.810291 -0.541419
vn 0.224262 0.810291 -0.541419
vn -0.224263 0.810291 -0.541419
vn -0.224263 0.810291 -0.541419
vn -0.224263 0.810291 -0.541419
vn -0.224263 0.810291 -0.541420
vn -0.224263 0.810291 -0.541420
vn -0.224263 0.810291 -0.541420
vn -0.541419 0.810291 -0.224263
vn -0.541419 0.810291 -0.224263
vn -0.541419 0.810291 -0.224263
vn -0.541419 0.810291 -0.224263
vn -0.541419 0.810291 -0.224263
vn -0.541419 0.810291 -0.224263
vn -0.541419 0.810291 0.224263
vn -0.541419 0.810291 0.224263
vn -0.541419 0.810291 0.224263
vn -0.541420 0.810291 0.224263
vn -0.541420 0.810291 0.224263
vn -0.541420 0.810291 0.224263
vn -0.224263 0.810291 0.541419
vn -0.224263 0.810291 0.541419
vn -0.224263 0.810291 0.541419
vn -0.224262 0.810291 0.541419
vn -0.224262 0.810291 0.541419
vn -0.224262 0.810291 0.541419
vn 0.224263 0.810291 0.541419
vn 0.224263 0.810291 0.541419
vn 0.224263 0.810291 0.541419
vn 0.224263 0.810291 0.541420
vn 0.224263 0.810291 0.541420
vn 0.224263 0.810291 0.541420
vn 0.541419 0.810291 0.224263
vn 0.541419 0.810291 0.224263
vn 0.541419 0.810291 0.224263
vn 0.541419 0.810291 0.224263
vn 0.541419 0.810291 0.224263
vn 0.541419 0.810291 0.224263
vn 0.541419 0.810291 -0.224263
vn 0.541419 0.810291 -0.224263
vn 0.541419 0.810291 -0.224263
vn 0.541420 0.810291 -0.224263
vn 0.541420 0.810291 -0.224263
vn 0.541420 0.810291 -0.224263
vn 0.080546 -0.977599 -0.194456
vn 0.080546 -0.977599 -0.194456
vn 0.080546 -0.977599 -0.194456
vn -0.080546 -0.977599 -0.194456
vn -0.080546 -0.977599 -0.194456
vn -0.080546 -0.977599 -0.194456
vn -0.194456 -0.977599 -0.080545
vn -0.194456 -0.977599 -0.080545
vn -0.194456 -0.977599 -0.080545
vn -0.194456 -0.977599 0.080546
vn -0.194456 -0.977599 0.080546
vn -0.194456 -0.977599 0.080546
vn -0.080546 -0.977599 0.194456
vn -0.080546 -0.977599 0.194456
vn -0.080546 -0.977599 0.194456
vn 0.080546 -0.977599 0.194456
vn 0.080546 -0.977599 0.194456
vn 0.080546 -0.977599 0.194456
vn 0.194456 -0.977599 0.080545
vn 0.194456 -0.977599 0.080545
vn 0.194456 -0.977599 0.080545
vn 0.194456 -0.977599 -0.080546
vn 0.194456 -0.977599 -0.080546
vn 0.194456 -0.977599 -0.080546
vn 0.080546 0.977599 -0.194456
vn 0.080546 0.977599 -0.194456
vn 0.080546 0.977599 -0.194456
vn -0.080546 0.977599 -0.194456
vn -0.080546 0.977599 -0.194456
vn -0.080546 0.977599 -0.194456
vn -0.194456 0.977599 -0.080546
vn -0.194456 0.977599 -0.080546
vn -0.194456 0.977599 -0.080546
vn -0.194456 0.977599 0.080545
vn -0.194456 0.977599 0.080545
vn -0.194456 0.977599 0.080545
vn -0.080546 0.977599 0.194456
vn -0.080546 0.977599 0.194456
vn -0.080546 0.977599 0.194456
vn 0.080546 0.977599 0.194456
vn 0.080546 0.977599 0.194456
vn 0.080546 0.977599 0.194456
vn 0.194456 0.977599 0.080546
vn 0.194456 0.977599 0.080546
vn 0.194456 0.977599 0.080546
vn 0.194456 0.977599 -0.080545
vn 0.194456 0.977599 -0.080545
vn 0.194456 0.977599 -0.080545
s off
g pSphere1
usemtl initialShadingGroup
f 1/1/1 2/2/2 9/3/3
f 9/3/4 2/2/5 10/4/6
f 2/2/7 3/5/8 10/4/9
f 10/4/10 3/5/11 11/6/12
f 3/5/13 4/7/14 11/6/15
f 11/6/16 4/7/17 12/8/18
f 4/7/19 5/9/20 12/8/21
f 12/8/22 5/9/23 13/10/24
f 5/9/25 6/11/26 13/10/27
f 13/10/28 6/11/29 14/12/30
f 6/11/31 7/13/32 14/12/33
f 14/12/34 7/13/35 15/14/36
f 7/13/37 8/15/38 15/14/39
f 15/14/40 8/15/41 16/16/42
f 8/15/43 1/17/44 16/16/45
f 16/16/46 1/17/47 9/18/48
f 9/3/49 10/4/50 17/19/51
f 17/19/52 10/4/53 18/20/54
f 10/4/55 11/6/56 18/20/57
f 18/20/58 11/6/59 19/21/60
f 11/6/61 12/8/62 19/21/63
f 19/21/64 12/8/65 20/22/66
f 12/8/67 13/10/68 20/22/69
f 20/22/70 13/10/71 21/23/72
f 13/10/73 14/12/74 21/23/75
f 21/23/76 14/12/77 22/24/78
f 14/12/79 15/14/80 22/24/81
f 22/24/82 15/14/83 23/25/84
f 15/14/85 16/16/86 23/25/87
f 23/25/88 16/16/89 24/26/90
f 16/16/91 9/18/92 24/26/93
f 24/26/94 9/18/95 17/27/96
f 17/19/97 18/20/98 25/28/99
f 25/28/100 18/20/101 26/29/102
f 18/20/103 19/21/104 26/29/105
f 26/29/106 19/21/107 27/30/108
f 19/21/109 20/22/110 27/30/111
f 27/30/112 20/22/113 28/31/114
f 20/22/115 21/23/116 28/31/117
f 28/31/118 21/23/119 29/32/120
f 21/23/121 22/24/122 29/32/123
f 29/32/124 22/24/125 30/33/126
f 22/24/127 23/25/128 30/33/129
f 30/33/130 23/25/131 31/34/132
f 23/25/133 24/26/134 31/34/135
f 31/34/136 24/26/137 32/35/138
f 24/26/139 17/27/140 32/35/141
f 32/35/142 17/27/143 25/36/144
f 25/28/145 26/29/146 33/37/147
f 33/37/148 26/29/149 34/38/150
f 26/29/151 27/30/152 34/38/153
f 34/38/154 27/30/155 35/39/156
f 27/30/157 28/31/158 35/39/159
f 35/39/160 28/31/161 36/40/162
f 28/31/163 29/32/164 36/40/165
f 36/40/166 29/32/167 37/41/168
f 29/32/169 30/33/170 37/41/171
f 37/41/172 30/33/173 38/42/174
f 30/33/175 31/34/176 38/42/177
f 38/42/178 31/34/179 39/43/180
f 31/34/181 32/35/182 39/43/183
f 39/43/184 32/35/185 40/44/186
f 32/35/187 25/36/188 40/44/189
f 40/44/190 25/36/191 33/45/192
f 33/37/193 34/38/194 41/46/195
f 41/46/196 34/38/197 42/47/198
f 34/38/199 35/39/200 42/47/201
f 42/47/202 35/39/203 43/48/204
f 35/39/205 36/40/206 43/48/207
f 43/48/208 36/40/209 44/49/210
f 36/40/211 37/41/212 44/49/213
f 44/49/214 37/41/215 45/50/216
f 37/41/217 38/42/218 45/50/219
f 45/50/220 38/42/221 46/51/222
f 38/42/223 39/43/224 46/51/225
f 46/51/226 39/43/227 47/52/228
f 39/43/229 40/44/230 47/52/231
f 47/52/232 40/44/233 48/53/234
f 40/44/235 33/45/236 48/53/237
f 48/53/238 33/45/239 41/54/240
f 41/46/241 42/47/242 49/55/243
f 49/55/244 42/47/245 50/56/246
f 42/47/247 43/48/248 50/56/249
f 50/56/250 43/48/251 51/57/252
f 43/48/253 44/49/254 51/57/255
f 51/57/256 44/49/257 52/58/258
f 44/49/259 45/50/260 52/58/261
f 52/58/262 45/50/263 53/59/264
f 45/50/265 46/51/266 53/59/267
f 53/59/268 46/51/269 54/60/270
f 46/51/271 47/52/272 54/60/273
f 54/60/274 47/52/275 55/61/276
f 47/52/277 48/53/278 55/61/279
f 55/61/280 48/53/281 56/62/282
f 48/53/283 41/54/284 56/62/285
f 56/62/286 41/54/287 49/63/288
f 2/2/289 1/1/290 57/64/291
f 3/5/292 2/2/293 57/65/294
f 4/7/295 3/5/296 57/66/297
f 5/9/298 4/7/299 57/67/300
f 6/11/301 5/9/302 57/68/303
f 7/13/304 6/11/305 57/69/306
f 8/15/307 7/13/308 57/70/309
f 1/17/310 8/15/311 57/71/312
f 49/55/313 50/56/314 58/72/315
f 50/56/316 51/57/317 58/73/318
f 51/57/319 52/58/320 58/74/321
f 52/58/322 53/59/323 58/75/324
f 53/59/325 54/60/326 58/76/327
f 54/60/328 55/61/329 58/77/330
f 55/61/331 56/62/332 58/78/333
f 56/62/334 49/63/335 58/79/336
